<svg width="200" height="200" viewBox="0 0 200 200" fill="none" xmlns="http://www.w3.org/2000/svg">
  <!-- Circular badge design with document and checkmark -->
  <defs>
    <linearGradient id="grad4" x1="0%" y1="0%" x2="100%" y2="100%">
      <stop offset="0%" style="stop-color:#4F46E5;stop-opacity:1" />
      <stop offset="50%" style="stop-color:#7C3AED;stop-opacity:1" />
      <stop offset="100%" style="stop-color:#06B6D4;stop-opacity:1" />
    </linearGradient>
  </defs>

  <!-- Outer circle -->
  <circle cx="100" cy="100" r="80" fill="url(#grad4)"/>

  <!-- Inner circle for depth -->
  <circle cx="100" cy="100" r="65" fill="white" opacity="0.1"/>

  <!-- Document icon -->
  <path d="M75 65 L75 120 Q75 125 80 125 L120 125 Q125 125 125 120 L125 75 L115 65 Z" fill="white" opacity="0.95"/>
  <path d="M115 65 L115 75 L125 75 Z" fill="#312E81" opacity="0.15"/>

  <!-- Document lines -->
  <line x1="85" y1="80" x2="110" y2="80" stroke="#4F46E5" stroke-width="1.5" opacity="0.4"/>
  <line x1="85" y1="90" x2="115" y2="90" stroke="#4F46E5" stroke-width="1.5" opacity="0.4"/>
  <line x1="85" y1="100" x2="105" y2="100" stroke="#4F46E5" stroke-width="1.5" opacity="0.4"/>

  <!-- Large checkmark overlay -->
  <circle cx="110" cy="110" r="22" fill="#10B981"/>
  <path d="M100 110 L107 118 L122 100" stroke="white" stroke-width="4" stroke-linecap="round" stroke-linejoin="round" fill="none"/>

  <!-- Trail elements around the circle -->
  <g opacity="0.6">
    <circle cx="50" cy="70" r="5" fill="#10B981"/>
    <circle cx="40" cy="100" r="6" fill="#10B981"/>
    <circle cx="50" cy="130" r="5" fill="#10B981"/>
    <circle cx="150" cy="70" r="5" fill="#10B981"/>
    <circle cx="160" cy="100" r="6" fill="#10B981"/>
    <circle cx="150" cy="130" r="5" fill="#10B981"/>
  </g>
</svg>
