<svg width="200" height="200" viewBox="0 0 200 200" fill="none" xmlns="http://www.w3.org/2000/svg">
  <!-- Modern flat design - Document path with progress checks -->
  <defs>
    <linearGradient id="grad5" x1="0%" y1="0%" x2="100%" y2="100%">
      <stop offset="0%" style="stop-color:#4F46E5;stop-opacity:1" />
      <stop offset="100%" style="stop-color:#7C3AED;stop-opacity:1" />
    </linearGradient>
  </defs>

  <!-- Document with modern fold -->
  <path d="M50 50 L50 150 L140 150 L140 70 L120 50 Z" fill="url(#grad5)"/>
  <path d="M120 50 L120 70 L140 70 Z" fill="#1E1B4B"/>

  <!-- Acknowledgment trail path -->
  <path d="M65 80 Q80 80 95 95 Q110 110 125 125" stroke="#10B981" stroke-width="4" stroke-linecap="round" fill="none" opacity="0.3"/>

  <!-- Progress checkpoints -->
  <g>
    <!-- Start point -->
    <circle cx="65" cy="80" r="10" fill="white" opacity="0.9"/>
    <circle cx="65" cy="80" r="6" fill="#10B981"/>
  </g>

  <g>
    <!-- Mid point -->
    <circle cx="95" cy="95" r="12" fill="white" opacity="0.9"/>
    <path d="M90 95 L93 99 L101 89" stroke="#10B981" stroke-width="2.5" stroke-linecap="round" stroke-linejoin="round" fill="none"/>
  </g>

  <g>
    <!-- End point - final check -->
    <circle cx="125" cy="125" r="16" fill="#10B981"/>
    <path d="M118 125 L123 131 L135 117" stroke="white" stroke-width="3.5" stroke-linecap="round" stroke-linejoin="round" fill="none"/>
  </g>

  <!-- Small document lines for detail -->
  <g opacity="0.3">
    <line x1="65" y1="65" x2="105" y2="65" stroke="white" stroke-width="2"/>
    <line x1="65" y1="75" x2="110" y2="75" stroke="white" stroke-width="2"/>
    <line x1="65" y1="105" x2="90" y2="105" stroke="white" stroke-width="2"/>
    <line x1="65" y1="115" x2="85" y2="115" stroke="white" stroke-width="2"/>
  </g>
</svg>
