<svg width="200" height="200" viewBox="0 0 200 200" fill="none" xmlns="http://www.w3.org/2000/svg">
  <!-- Abstract "A" shape with document and trail concept -->
  <defs>
    <linearGradient id="grad3" x1="0%" y1="0%" x2="100%" y2="100%">
      <stop offset="0%" style="stop-color:#6366F1;stop-opacity:1" />
      <stop offset="100%" style="stop-color:#8B5CF6;stop-opacity:1" />
    </linearGradient>
  </defs>

  <!-- Stylized "A" from document -->
  <path d="M100 40 L140 140 L120 140 L115 120 L85 120 L80 140 L60 140 L100 40 Z" fill="url(#grad3)"/>

  <!-- Document fold at top of A -->
  <path d="M100 40 L90 60 L110 60 Z" fill="#312E81" opacity="0.3"/>

  <!-- Horizontal bar of A -->
  <rect x="88" y="110" width="24" height="8" fill="white" opacity="0.3"/>

  <!-- Checkmark trail flowing through the A -->
  <g>
    <circle cx="100" cy="65" r="8" fill="#10B981"/>
    <path d="M97 65 L99 68 L103 62" stroke="white" stroke-width="2" stroke-linecap="round" stroke-linejoin="round" fill="none"/>
  </g>

  <g>
    <circle cx="100" cy="85" r="10" fill="#10B981"/>
    <path d="M96 85 L99 89 L105 81" stroke="white" stroke-width="2.5" stroke-linecap="round" stroke-linejoin="round" fill="none"/>
  </g>

  <g>
    <circle cx="100" cy="105" r="12" fill="#10B981"/>
    <path d="M95 105 L98 110 L107 99" stroke="white" stroke-width="3" stroke-linecap="round" stroke-linejoin="round" fill="none"/>
  </g>

  <!-- Trail dots -->
  <circle cx="155" cy="60" r="4" fill="#10B981" opacity="0.3"/>
  <circle cx="160" cy="80" r="5" fill="#10B981" opacity="0.5"/>
  <circle cx="165" cy="100" r="6" fill="#10B981" opacity="0.7"/>
  <circle cx="170" cy="120" r="7" fill="#10B981"/>
</svg>
